<?xml version="1.0" encoding="UTF-8"?>
<svg version="1.1" xmlns="http://www.w3.org/2000/svg" width="94" height="94">
<path d="M0 0 C0.65392731 -0.00029205 1.30785461 -0.00058411 1.9815979 -0.00088501 C4.14061809 0.00050708 6.29929213 0.01606221 8.45825195 0.03173828 C9.95611889 0.03546885 11.45398827 0.03831562 12.95185852 0.04031372 C16.89253487 0.04794675 20.83306359 0.06759234 24.77368164 0.08972168 C28.79547122 0.11018726 32.81728468 0.11931696 36.83911133 0.12939453 C44.729153 0.1508386 52.61907473 0.18497049 60.5090332 0.22705078 C62.15370892 3.128916 62.77308713 5.26676127 62.84716797 8.59326172 C62.86961075 9.44805115 62.89205353 10.30284058 62.91517639 11.18353271 C62.93263161 12.55858978 62.93263161 12.55858978 62.95043945 13.96142578 C62.97109718 15.38941498 62.97109718 15.38941498 62.99217224 16.84625244 C63.01542815 18.86017056 63.03270176 20.87416537 63.04443359 22.88818359 C63.07132314 25.95310769 63.14623472 29.01456021 63.22192383 32.07861328 C63.23858573 34.03952765 63.25235058 36.00046921 63.26293945 37.96142578 C63.29279434 38.87003357 63.32264923 39.77864136 63.35340881 40.71478271 C63.31005378 47.0600147 61.66034366 50.12606438 57.16026306 54.58770752 C55.35375139 56.24103588 55.35375139 56.24103588 54.0090332 58.78955078 C51.56400588 62.76272019 48.0257414 67.53310551 43.3840332 68.81298828 C42.4559082 69.01794922 42.4559082 69.01794922 41.5090332 69.22705078 C39.90072081 71.09360311 39.90072081 71.09360311 38.5090332 73.22705078 C36.89009208 75.20076892 36.06174841 76.12701139 33.51582336 76.58781433 C32.37998055 76.57782158 32.37998055 76.57782158 31.22119141 76.56762695 C30.36052567 76.56740036 29.49985992 76.56717377 28.6131134 76.56694031 C27.22548042 76.54371452 27.22548042 76.54371452 25.80981445 76.52001953 C24.85962936 76.51577469 23.90944427 76.51152985 22.9304657 76.50715637 C19.89386732 76.49035563 16.85793118 76.4527007 13.8215332 76.41455078 C11.76360008 76.39950575 9.70565655 76.38581703 7.64770508 76.37353516 C2.60122573 76.34044749 -2.44475823 76.28865541 -7.4909668 76.22705078 C-9.42729202 72.14760365 -9.74848627 68.85312631 -9.765625 64.35717773 C-9.77073593 63.68666382 -9.77584686 63.0161499 -9.78111267 62.32531738 C-9.79494836 60.12189676 -9.79405748 57.91879076 -9.79174805 55.71533203 C-9.79563637 54.18027124 -9.79997132 52.64521153 -9.80473328 51.1101532 C-9.81218104 47.89997866 -9.8119133 44.68991416 -9.80664062 41.47973633 C-9.80082699 37.3602177 -9.81782909 33.24114591 -9.8409853 29.12170124 C-9.85568783 25.95533098 -9.85659949 22.78906947 -9.85347557 19.62267113 C-9.85398986 18.10317278 -9.85924768 16.58366852 -9.86928749 15.06420326 C-9.88157704 12.94541529 -9.87490823 10.82751321 -9.86328125 8.70874023 C-9.86391068 7.50248489 -9.8645401 6.29622955 -9.8651886 5.05342102 C-9.7416954 4.12071884 -9.61820221 3.18801666 -9.4909668 2.22705078 C-5.88622243 -0.17611213 -4.28407088 -0.01607531 0 0 Z M-6.4909668 1.22705078 C-6.4909668 1.55705078 -6.4909668 1.88705078 -6.4909668 2.22705078 C15.2890332 2.22705078 37.0690332 2.22705078 59.5090332 2.22705078 C59.5090332 1.89705078 59.5090332 1.56705078 59.5090332 1.22705078 C37.7290332 1.22705078 15.9490332 1.22705078 -6.4909668 1.22705078 Z M-6.4909668 74.22705078 C-6.4909668 74.55705078 -6.4909668 74.88705078 -6.4909668 75.22705078 C7.3690332 75.22705078 21.2290332 75.22705078 35.5090332 75.22705078 C35.5090332 74.89705078 35.5090332 74.56705078 35.5090332 74.22705078 C21.6490332 74.22705078 7.7890332 74.22705078 -6.4909668 74.22705078 Z " fill="#FDCB3D" transform="translate(20.490966796875,8.77294921875)"/>
<path d="M0 0 C0.78552246 0.01047363 1.57104492 0.02094727 2.38037109 0.03173828 C3.23115234 0.03818359 4.08193359 0.04462891 4.95849609 0.05126953 C6.29267578 0.07640625 6.29267578 0.07640625 7.65380859 0.10205078 C8.99958984 0.11558594 8.99958984 0.11558594 10.37255859 0.12939453 C12.59157445 0.15300108 14.81005937 0.18592768 17.02880859 0.22705078 C4.13969874 17.74562287 4.13969874 17.74562287 -1.97119141 19.22705078 C-3.32421937 20.20023787 -4.66018611 21.19795268 -5.97119141 22.22705078 C-5.69402204 18.93399347 -5.39700359 15.64302588 -5.09619141 12.35205078 C-5.01755859 11.41490234 -4.93892578 10.47775391 -4.85791016 9.51220703 C-4.77412109 8.61630859 -4.69033203 7.72041016 -4.60400391 6.79736328 C-4.53068848 5.96994629 -4.45737305 5.1425293 -4.38183594 4.29003906 C-3.8197841 1.46641361 -2.91183701 0.33539862 0 0 Z " fill="#6D3F29" transform="translate(63.97119140625,58.77294921875)"/>
<path d="M0 0 C1.54221474 0.02997826 1.54221474 0.02997826 3.11558533 0.06056213 C4.27671341 0.08065842 5.43784149 0.1007547 6.63415527 0.12145996 C8.52943214 0.16201256 8.52943214 0.16201256 10.46299744 0.2033844 C11.74895309 0.22699539 13.03490875 0.25060638 14.35983276 0.27493286 C17.78435361 0.3378667 21.20872554 0.4069067 24.63310242 0.47718811 C28.12515969 0.54778785 31.61732284 0.61265476 35.10948181 0.67799377 C41.9657167 0.80712584 48.8218114 0.9427043 55.67784119 1.08229065 C55.34784119 1.74229065 55.01784119 2.40229065 54.67784119 3.08229065 C54.01829437 3.0903775 53.35874756 3.09846436 52.67921448 3.10679626 C45.83382911 3.19264637 38.9887399 3.29214068 32.1436615 3.39967346 C29.58674582 3.43803045 27.02977493 3.47287127 24.47276306 3.50416565 C20.8039421 3.54967041 17.13550346 3.60768874 13.46690369 3.66822815 C12.31791595 3.67977936 11.16892822 3.69133057 9.98512268 3.70323181 C8.39369949 3.73303635 8.39369949 3.73303635 6.77012634 3.76344299 C5.36447922 3.7834285 5.36447922 3.7834285 3.93043518 3.80381775 C1.47748967 3.87263531 1.47748967 3.87263531 -0.32215881 6.08229065 C-0.65987357 8.37509393 -0.65987357 8.37509393 -0.66590881 11.01979065 C-0.69555725 11.99690002 -0.72520569 12.9740094 -0.75575256 13.98072815 C-0.77766663 15.00424377 -0.79958069 16.0277594 -0.82215881 17.08229065 C-0.86543048 19.10333187 -0.91709851 21.12421621 -0.97840881 23.14479065 C-0.99710022 24.04326721 -1.01579163 24.94174377 -1.03504944 25.8674469 C-1.32215881 28.08229065 -1.32215881 28.08229065 -3.32215881 30.08229065 C-3.34681627 25.97056505 -3.3649984 21.85886787 -3.37709045 17.74708557 C-3.38212961 16.34733837 -3.38896098 14.94759645 -3.39759827 13.54786682 C-3.40968201 11.53983288 -3.41485688 9.53176107 -3.41981506 7.5236969 C-3.42505188 6.31399231 -3.4302887 5.10428772 -3.4356842 3.85792542 C-3.28265026 0.11632771 -3.28265026 0.11632771 0 0 Z " fill="#FEFA82" transform="translate(14.322158813476563,9.917709350585938)"/>
<path d="M0 0 C0.33 0 0.66 0 1 0 C1.33 3.63 1.66 7.26 2 11 C22.79 10.505 22.79 10.505 44 10 C44.33 9.01 44.66 8.02 45 7 C45.66 7 46.32 7 47 7 C47.1875 9.875 47.1875 9.875 47 13 C43.88692064 15.07538624 43.23651805 15.24772151 39.7121582 15.22705078 C38.42115959 15.22682419 38.42115959 15.22682419 37.1040802 15.22659302 C36.17899155 15.21627045 35.25390289 15.20594788 34.30078125 15.1953125 C33.35059616 15.1924826 32.40041107 15.18965271 31.4214325 15.18673706 C28.38499385 15.17553715 25.34884958 15.15043288 22.3125 15.125 C20.25456155 15.11496996 18.19661848 15.10584415 16.13867188 15.09765625 C11.0923344 15.07559842 6.04621712 15.04106982 1 15 C-1.25729362 9.80733247 -1.82199993 5.4659998 0 0 Z M2 13 C2 13.33 2 13.66 2 14 C15.86 14 29.72 14 44 14 C44 13.67 44 13.34 44 13 C30.14 13 16.28 13 2 13 Z " fill="#FDA510" transform="translate(12,70)"/>
<path d="M0 0 C13.53 0 27.06 0 41 0 C41 1.32 41 2.64 41 4 C27.47 4 13.94 4 0 4 C0 2.68 0 1.36 0 0 Z " fill="#D29B43" transform="translate(27,44)"/>
<path d="M0 0 C13.86 0 27.72 0 42 0 C42 0.99 42 1.98 42 3 C28.14 3 14.28 3 0 3 C0 2.01 0 1.02 0 0 Z " fill="#D39D45" transform="translate(27,33)"/>
<path d="M0 0 C1.18613892 0.00785522 1.18613892 0.00785522 2.39624023 0.01586914 C3.67724609 0.02070312 3.67724609 0.02070312 4.98413086 0.02563477 C5.88196289 0.03401367 6.77979492 0.04239258 7.70483398 0.05102539 C8.6065332 0.05553711 9.50823242 0.06004883 10.43725586 0.06469727 C12.67234712 0.07652315 14.90730835 0.09300319 17.14233398 0.11352539 C17.14233398 0.44352539 17.14233398 0.77352539 17.14233398 1.11352539 C15.86358398 1.25790039 14.58483398 1.40227539 13.26733398 1.55102539 C7.52538817 2.76321395 4.21105666 6.20369487 0.11108398 10.21508789 C-1.85766602 12.11352539 -1.85766602 12.11352539 -2.85766602 12.11352539 C-3.18766602 13.76352539 -3.51766602 15.41352539 -3.85766602 17.11352539 C-4.18766602 17.11352539 -4.51766602 17.11352539 -4.85766602 17.11352539 C-5.09301316 11.34752034 -4.79151088 6.57379324 -2.85766602 1.11352539 C-1.85766602 0.11352539 -1.85766602 0.11352539 0 0 Z " fill="#995F2D" transform="translate(63.857666015625,58.886474609375)"/>
<path d="M0 0 C22.11 0 44.22 0 67 0 C68.88343932 3.76687864 69.22057835 5.02958963 69 9 C68.34 9.33 67.68 9.66 67 10 C67 8.35 67 6.7 67 5 C63.04 4.67 59.08 4.34 55 4 C55.33 3.34 55.66 2.68 56 2 C37.52 1.67 19.04 1.34 0 1 C0 0.67 0 0.34 0 0 Z " fill="#FEFB46" transform="translate(14,9)"/>
<path d="M0 0 C0.33 0 0.66 0 1 0 C1.02467609 5.51757479 1.04284856 11.03511761 1.05493164 16.55273438 C1.05996763 18.43066975 1.06679671 20.3086012 1.07543945 22.18652344 C1.08753713 24.88217132 1.09323557 27.57776747 1.09765625 30.2734375 C1.10281754 31.11619232 1.10797882 31.95894714 1.11329651 32.82723999 C1.11387171 38.77225659 1.11387171 38.77225659 0 41 C-3.96 41 -7.92 41 -12 41 C-12 40.67 -12 40.34 -12 40 C-10.9275 39.87625 -9.855 39.7525 -8.75 39.625 C-5.55333667 39.09222278 -3.75908348 38.50162508 -1 37 C-1.00523682 35.91468994 -1.01047363 34.82937988 -1.01586914 33.71118164 C-1.03391836 29.69882018 -1.04543171 25.68646233 -1.05493164 21.67407227 C-1.05997204 19.93480832 -1.0668043 18.19554864 -1.07543945 16.45629883 C-1.08751792 13.96174063 -1.09323108 11.46723827 -1.09765625 8.97265625 C-1.10281754 8.19036148 -1.10797882 7.40806671 -1.11329651 6.60206604 C-1.11349226 4.73432886 -1.06199694 2.86670796 -1 1 C-0.67 0.67 -0.34 0.34 0 0 Z " fill="#FED223" transform="translate(82,18)"/>
<path d="M0 0 C6.6 0 13.2 0 20 0 C20 1.32 20 2.64 20 4 C13.4 4 6.8 4 0 4 C0 2.68 0 1.36 0 0 Z " fill="#D09742" transform="translate(27,55)"/>
<path d="M0 0 C0.33 0 0.66 0 1 0 C1.33 22.44 1.66 44.88 2 68 C1.34 67.67 0.68 67.34 0 67 C0 44.89 0 22.78 0 0 Z " fill="#FFF92B" transform="translate(9,14)"/>
<path d="M0 0 C0.66 0 1.32 0 2 0 C2 0.99 2 1.98 2 3 C2.66 3.33 3.32 3.66 4 4 C3.34 4.66 2.68 5.32 2 6 C1.66228524 8.29280328 1.66228524 8.29280328 1.65625 10.9375 C1.62660156 11.91460937 1.59695313 12.89171875 1.56640625 13.8984375 C1.54449219 14.92195313 1.52257812 15.94546875 1.5 17 C1.45672834 19.02104122 1.40506031 21.04192556 1.34375 23.0625 C1.32505859 23.96097656 1.30636719 24.85945313 1.28710938 25.78515625 C1 28 1 28 -1 30 C-1.02465746 25.8882744 -1.04283959 21.77657722 -1.05493164 17.66479492 C-1.0599708 16.26504772 -1.06680216 14.8653058 -1.07543945 13.46557617 C-1.0875232 11.45754223 -1.09269807 9.44947043 -1.09765625 7.44140625 C-1.10289307 6.23170166 -1.10812988 5.02199707 -1.11352539 3.77563477 C-1 1 -1 1 0 0 Z " fill="#FEE979" transform="translate(12,10)"/>
<path d="M0 0 C0.58265625 0.21914063 1.1653125 0.43828125 1.765625 0.6640625 C-0.92490551 3.90852576 -3.62759483 7.14172079 -6.359375 10.3515625 C-6.83632812 10.91230469 -7.31328125 11.47304687 -7.8046875 12.05078125 C-9.22481298 13.65327257 -10.70489111 15.16625432 -12.234375 16.6640625 C-12.894375 16.3340625 -13.554375 16.0040625 -14.234375 15.6640625 C-13.409375 14.9421875 -12.584375 14.2203125 -11.734375 13.4765625 C-8.93200236 10.9863718 -8.93200236 10.9863718 -9.359375 8.2265625 C-9.20051046 4.96983949 -8.34415771 4.44472898 -5.984375 2.2890625 C-2.85155057 -0.42872963 -2.85155057 -0.42872963 0 0 Z " fill="#643626" transform="translate(78.234375,60.3359375)"/>
<path d="M0 0 C0.33 0 0.66 0 1 0 C1 14.52 1 29.04 1 44 C0.67 44 0.34 44 0 44 C0 29.48 0 14.96 0 0 Z " fill="#FFC301" transform="translate(84,13)"/>
<path d="M0 0 C0.66 0 1.32 0 2 0 C2 1.98 2 3.96 2 6 C-1.20015856 7.06671952 -2.88544294 6.94845472 -6.1875 6.5625 C-7.08855469 6.46066406 -7.98960938 6.35882813 -8.91796875 6.25390625 C-9.60503906 6.17011719 -10.29210938 6.08632812 -11 6 C-10.67 5.34 -10.34 4.68 -10 4 C-7.93359375 3.5859375 -7.93359375 3.5859375 -5.4375 3.375 C-4.61121094 3.30023438 -3.78492188 3.22546875 -2.93359375 3.1484375 C-1.97646484 3.07496094 -1.97646484 3.07496094 -1 3 C-0.67 2.01 -0.34 1.02 0 0 Z " fill="#EDAC15" transform="translate(57,77)"/>
<path d="M0 0 C0.99 0.33 1.98 0.66 3 1 C2.40832031 1.43570313 1.81664063 1.87140625 1.20703125 2.3203125 C-3.52181143 5.8843016 -7.36187918 9.3386577 -11 14 C-11.33 14 -11.66 14 -12 14 C-12 12.35 -12 10.7 -12 9 C-11.42378906 8.74605469 -10.84757812 8.49210937 -10.25390625 8.23046875 C-6.98952377 6.44835353 -4.57480832 3.92289703 -1.90234375 1.36328125 C-0.96068359 0.68845703 -0.96068359 0.68845703 0 0 Z " fill="#804929" transform="translate(72,61)"/>
<path d="M0 0 C0.33 0 0.66 0 1 0 C1.33 3.63 1.66 7.26 2 11 C2.99 11.33 3.98 11.66 5 12 C4.67 12.99 4.34 13.98 4 15 C2.68 14.67 1.36 14.34 0 14 C-1.49594333 9.32517708 -1.54799337 4.64398011 0 0 Z " fill="#FED123" transform="translate(12,70)"/>
<path d="M0 0 C0.66 0.33 1.32 0.66 2 1 C1.67 1.66 1.34 2.32 1 3 C1.66 3.33 2.32 3.66 3 4 C-0.96 4 -4.92 4 -9 4 C-9 3.67 -9 3.34 -9 3 C-7.88625 2.87625 -6.7725 2.7525 -5.625 2.625 C-1.96896323 2.3534187 -1.96896323 2.3534187 0 0 Z " fill="#F6B118" transform="translate(79,55)"/>
<path d="M0 0 C1.99954746 -0.04254356 4.00041636 -0.04080783 6 0 C7 1 7 1 7.0625 3.5625 C7.041875 4.366875 7.02125 5.17125 7 6 C6.01 6.495 6.01 6.495 5 7 C5 5.35 5 3.7 5 2 C3.35 1.67 1.7 1.34 0 1 C0 0.67 0 0.34 0 0 Z " fill="#FEE738" transform="translate(76,12)"/>
<path d="M0 0 C0.33 0.66 0.66 1.32 1 2 C0.34 1.67 -0.32 1.34 -1 1 C-0.67 0.67 -0.34 0.34 0 0 Z " fill="#372626" transform="translate(63,77)"/>
<path d="" fill="#BF9400" transform="translate(0,0)"/>
<path d="" fill="#FFFF9F" transform="translate(0,0)"/>
<path d="" fill="#FFFF00" transform="translate(0,0)"/>
<path d="" fill="#AA5555" transform="translate(0,0)"/>
<path d="" fill="#555500" transform="translate(0,0)"/>
<path d="" fill="#3F0000" transform="translate(0,0)"/>
<path d="" fill="#555500" transform="translate(0,0)"/>
<path d="" fill="#7F0000" transform="translate(0,0)"/>
<path d="" fill="#555555" transform="translate(0,0)"/>
<path d="" fill="#3F3F3F" transform="translate(0,0)"/>
<path d="" fill="#7F7F7F" transform="translate(0,0)"/>
<path d="" fill="#AA5555" transform="translate(0,0)"/>
<path d="" fill="#AA5555" transform="translate(0,0)"/>
<path d="" fill="#7F7F00" transform="translate(0,0)"/>
<path d="" fill="#FFFF00" transform="translate(0,0)"/>
<path d="" fill="#FFFF00" transform="translate(0,0)"/>
</svg>
